<svg width="124" height="124" viewBox="0 0 124 124" fill="none" xmlns="http://www.w3.org/2000/svg">
<g filter="url(#filter0_d_2201_231)">
<rect x="10" y="6" width="104" height="104" rx="52" fill="url(#paint0_linear_2201_231)"/>
</g>
<path d="M61.5 92L39 58.6016H51.1219V35H71.8781V58.6016H84L61.5 92Z" fill="url(#paint1_linear_2201_231)"/>
<path d="M34.6084 55.5156C35.2647 55.5156 35.8558 55.6693 36.3819 55.9766C36.9131 56.2786 37.3246 56.7083 37.6162 57.2656C37.9131 57.8229 38.0616 58.4661 38.0616 59.1953C38.0616 60.4714 37.6761 61.4505 36.9053 62.1328C36.1397 62.8151 34.9782 63.1562 33.4209 63.1562C32.0876 63.1562 30.9991 62.9505 30.1553 62.5391V60.0078C30.6084 60.2161 31.1189 60.388 31.6866 60.5234C32.2595 60.6589 32.7517 60.7266 33.1631 60.7266C33.736 60.7266 34.1761 60.6068 34.4834 60.3672C34.7907 60.1224 34.9444 59.763 34.9444 59.2891C34.9444 58.8516 34.7881 58.5104 34.4756 58.2656C34.1631 58.0208 33.6892 57.8984 33.0537 57.8984C32.5694 57.8984 32.0459 57.9896 31.4834 58.1719L30.3506 57.6094L30.7803 51.5781H37.2959V54.1484H33.4053L33.2647 55.6562C33.6709 55.5781 33.96 55.5365 34.1319 55.5312C34.3037 55.5208 34.4626 55.5156 34.6084 55.5156ZM47.2884 57.3047C47.2884 59.3255 46.9499 60.8073 46.2728 61.75C45.5957 62.6875 44.5593 63.1562 43.1634 63.1562C41.7989 63.1562 40.7702 62.6667 40.0775 61.6875C39.3848 60.7031 39.0384 59.2422 39.0384 57.3047C39.0384 55.2734 39.377 53.7839 40.0541 52.8359C40.7311 51.888 41.7676 51.4141 43.1634 51.4141C44.5228 51.4141 45.5489 51.9089 46.2416 52.8984C46.9395 53.8828 47.2884 55.3516 47.2884 57.3047ZM42.1087 57.3047C42.1087 58.5964 42.1895 59.4844 42.3509 59.9688C42.5124 60.4531 42.7832 60.6953 43.1634 60.6953C43.5489 60.6953 43.8197 60.4453 43.9759 59.9453C44.1374 59.4453 44.2181 58.5651 44.2181 57.3047C44.2181 56.0391 44.1374 55.1536 43.9759 54.6484C43.8145 54.138 43.5436 53.8828 43.1634 53.8828C42.7832 53.8828 42.5124 54.1276 42.3509 54.6172C42.1895 55.1068 42.1087 56.0026 42.1087 57.3047ZM50.1716 55.0156C50.1716 55.6146 50.221 56.0469 50.32 56.3125C50.419 56.5781 50.5674 56.7109 50.7653 56.7109C50.9632 56.7109 51.1091 56.5807 51.2028 56.3203C51.3018 56.0599 51.3512 55.625 51.3512 55.0156C51.3512 54.4167 51.3018 53.9844 51.2028 53.7188C51.1091 53.4531 50.9632 53.3203 50.7653 53.3203C50.5622 53.3203 50.4111 53.4557 50.3122 53.7266C50.2184 53.9974 50.1716 54.4271 50.1716 55.0156ZM53.7106 54.9844C53.7106 56.1302 53.4528 57.0182 52.9372 57.6484C52.4216 58.2734 51.6872 58.5859 50.7341 58.5859C49.8382 58.5859 49.1273 58.263 48.6012 57.6172C48.0804 56.9661 47.82 56.0885 47.82 54.9844C47.82 53.8385 48.0752 52.9583 48.5856 52.3438C49.096 51.724 49.8122 51.4141 50.7341 51.4141C51.6455 51.4141 52.3695 51.7344 52.9059 52.375C53.4424 53.0156 53.7106 53.8854 53.7106 54.9844ZM59.4059 51.5781L53.07 63H50.7497L57.0856 51.5781H59.4059ZM58.8591 59.5625C58.8591 60.1615 58.9085 60.5938 59.0075 60.8594C59.1065 61.125 59.2549 61.2578 59.4528 61.2578C59.6768 61.2578 59.8304 61.1068 59.9137 60.8047C60.0023 60.4974 60.0466 60.0833 60.0466 59.5625C60.0466 59.0417 60.0023 58.6302 59.9137 58.3281C59.8304 58.0208 59.6768 57.8672 59.4528 57.8672C59.2497 57.8672 59.0986 58.0026 58.9997 58.2734C58.9059 58.5443 58.8591 58.974 58.8591 59.5625ZM62.3981 59.5312C62.3981 60.6719 62.1377 61.5573 61.6169 62.1875C61.1012 62.8125 60.3695 63.125 59.4216 63.125C58.5257 63.125 57.8148 62.8021 57.2887 62.1562C56.7679 61.5052 56.5075 60.6302 56.5075 59.5312C56.5075 58.3854 56.7627 57.5052 57.2731 56.8906C57.7835 56.2708 58.4997 55.9609 59.4216 55.9609C60.333 55.9609 61.057 56.2812 61.5934 56.9219C62.1299 57.5625 62.3981 58.4323 62.3981 59.5312ZM77.7034 57.2734C77.7034 59.1016 77.2399 60.5391 76.3128 61.5859C75.3909 62.6328 74.1071 63.1562 72.4613 63.1562C70.779 63.1562 69.4795 62.6432 68.5628 61.6172C67.6514 60.5859 67.1956 59.1328 67.1956 57.2578C67.1956 55.3984 67.654 53.9583 68.5706 52.9375C69.4873 51.9115 70.7894 51.3984 72.4769 51.3984C74.1175 51.3984 75.3988 51.9193 76.3206 52.9609C77.2425 54.0026 77.7034 55.4401 77.7034 57.2734ZM68.6019 57.2734C68.6019 58.8203 68.93 59.9948 69.5863 60.7969C70.2477 61.5938 71.206 61.9922 72.4613 61.9922C73.7269 61.9922 74.6826 61.5938 75.3284 60.7969C75.9743 60 76.2972 58.8255 76.2972 57.2734C76.2972 55.737 75.9743 54.5729 75.3284 53.7812C74.6878 52.9844 73.7373 52.5859 72.4769 52.5859C71.2113 52.5859 70.2477 52.987 69.5863 53.7891C68.93 54.5859 68.6019 55.7474 68.6019 57.2734ZM81.2663 63H79.9381V51.5781H86.3053V52.7578H81.2663V56.9375H86.0006V58.1172H81.2663V63ZM89.2119 63H87.8838V51.5781H94.2509V52.7578H89.2119V56.9375H93.9463V58.1172H89.2119V63Z" fill="#343A40"/>
<defs>
<filter id="filter0_d_2201_231" x="0" y="0" width="124" height="124" filterUnits="userSpaceOnUse" color-interpolation-filters="sRGB">
<feFlood flood-opacity="0" result="BackgroundImageFix"/>
<feColorMatrix in="SourceAlpha" type="matrix" values="0 0 0 0 0 0 0 0 0 0 0 0 0 0 0 0 0 0 127 0" result="hardAlpha"/>
<feOffset dy="4"/>
<feGaussianBlur stdDeviation="5"/>
<feColorMatrix type="matrix" values="0 0 0 0 0.258333 0 0 0 0 0.0914931 0 0 0 0 0.114464 0 0 0 0.1 0"/>
<feBlend mode="normal" in2="BackgroundImageFix" result="effect1_dropShadow_2201_231"/>
<feBlend mode="normal" in="SourceGraphic" in2="effect1_dropShadow_2201_231" result="shape"/>
</filter>
<linearGradient id="paint0_linear_2201_231" x1="62" y1="6" x2="62" y2="110" gradientUnits="userSpaceOnUse">
<stop stop-color="#FFEA0D"/>
<stop offset="1" stop-color="#FFC120"/>
</linearGradient>
<linearGradient id="paint1_linear_2201_231" x1="86.46" y1="122.4" x2="48.3412" y2="38.8764" gradientUnits="userSpaceOnUse">
<stop stop-color="#FFBB0D"/>
<stop offset="1" stop-color="#FFBB0D" stop-opacity="0"/>
</linearGradient>
</defs>
</svg>
