<svg width="36" height="36" viewBox="0 0 36 36" fill="none" xmlns="http://www.w3.org/2000/svg">
<rect x="0.5" y="0.5" width="35" height="35" rx="17.5" stroke="#ADB5BD"/>
<path d="M15.3327 25.9999C15.7009 25.9999 15.9993 25.7014 15.9993 25.3332C15.9993 24.965 15.7009 24.6665 15.3327 24.6665C14.9645 24.6665 14.666 24.965 14.666 25.3332C14.666 25.7014 14.9645 25.9999 15.3327 25.9999Z" stroke="#ADB5BD" stroke-width="1.5" stroke-linecap="round" stroke-linejoin="round"/>
<path d="M22.6667 25.9999C23.0349 25.9999 23.3333 25.7014 23.3333 25.3332C23.3333 24.965 23.0349 24.6665 22.6667 24.6665C22.2985 24.6665 22 24.965 22 25.3332C22 25.7014 22.2985 25.9999 22.6667 25.9999Z" stroke="#ADB5BD" stroke-width="1.5" stroke-linecap="round" stroke-linejoin="round"/>
<path d="M10 12H12.6667L14.4533 20.9267C14.5143 21.2336 14.6813 21.5093 14.925 21.7055C15.1688 21.9018 15.4738 22.006 15.7867 22H22.2667C22.5795 22.006 22.8845 21.9018 23.1283 21.7055C23.3721 21.5093 23.539 21.2336 23.6 20.9267L24.6667 15.3333H13.3333" stroke="#ADB5BD" stroke-width="1.5" stroke-linecap="round" stroke-linejoin="round"/>
</svg>
